<?xml version="1.0" standalone="no"?>
<!DOCTYPE svg PUBLIC "-//W3C//DTD SVG 20010904//EN"
 "http://www.w3.org/TR/2001/REC-SVG-20010904/DTD/svg10.dtd">
<svg version="1.0" xmlns="http://www.w3.org/2000/svg"
 width="2300.000000pt" height="432.000000pt" viewBox="0 0 2300.000000 432.000000"
 preserveAspectRatio="xMidYMid meet">

<g transform="translate(0.000000,432.000000) scale(0.100000,-0.100000)"
fill="#000000" stroke="none">
<path d="M0 2160 l0 -2160 11500 0 11500 0 0 2160 0 2160 -11500 0 -11500 0 0
-2160z m2633 1891 l477 -1 0 -489 0 -490 -567 -3 c-554 -4 -570 -5 -653 -27
-361 -97 -624 -361 -722 -724 -31 -116 -31 -356 0 -469 92 -335 323 -588 636
-694 150 -51 189 -54 767 -54 l539 0 0 -496 0 -496 -587 5 c-621 5 -668 8
-865 57 -267 67 -523 190 -743 359 -85 65 -247 223 -318 311 -570 707 -590
1700 -47 2425 341 455 858 738 1430 783 52 4 113 7 135 6 22 -2 255 -3 518 -3z
m3427 -40 c0 -21 7 -76 15 -122 78 -448 437 -779 893 -824 l72 -7 0 -484 0
-484 -65 0 c-225 0 -557 86 -798 206 -262 131 -546 372 -711 603 -219 306
-347 665 -372 1044 l-7 107 487 0 486 0 0 -39z m3869 -580 c296 -62 511 -190
675 -404 97 -127 186 -348 202 -502 l7 -65 -333 2 -333 3 -17 61 c-64 236
-232 364 -475 364 -346 0 -561 -251 -594 -694 -5 -71 -6 -169 0 -239 32 -432
221 -679 539 -704 277 -21 468 116 528 381 l17 76 332 0 333 0 0 -42 c0 -24
-9 -81 -19 -128 -98 -439 -378 -716 -831 -822 -123 -28 -410 -36 -546 -15
-656 104 -1068 665 -1048 1427 7 290 93 586 227 785 130 193 262 311 462 410
202 100 365 135 615 130 110 -2 185 -9 259 -24z m2491 13 c214 -30 392 -97
554 -207 84 -57 209 -179 276 -268 262 -352 340 -894 199 -1379 -137 -472
-508 -804 -988 -884 -188 -32 -452 -18 -641 34 -101 28 -299 126 -385 191
-257 193 -424 483 -491 854 -22 124 -26 441 -6 555 59 333 174 572 372 770
266 266 690 394 1110 334z m2575 -9 c124 -22 284 -77 373 -128 94 -53 208
-159 265 -245 70 -106 121 -252 134 -379 l6 -63 -337 0 -336 0 0 23 c0 44 -56
141 -108 188 -85 77 -248 113 -397 89 -164 -27 -255 -108 -255 -230 0 -63 17
-97 71 -144 60 -51 110 -67 469 -151 175 -40 360 -88 411 -105 286 -95 474
-279 541 -527 31 -115 31 -317 -1 -433 -95 -357 -376 -564 -851 -630 -107 -15
-351 -15 -478 0 -183 22 -360 79 -500 162 -75 44 -221 185 -271 261 -73 112
-141 326 -141 442 l0 45 339 0 338 0 7 -47 c8 -66 56 -161 102 -205 87 -83
239 -125 421 -115 128 6 221 33 276 78 106 88 112 249 12 337 -63 55 -133 79
-485 162 -492 116 -605 162 -755 314 -132 133 -184 258 -192 462 -4 90 -1 141
11 205 17 84 76 236 105 272 51 62 110 128 141 154 129 112 344 194 580 223
109 13 399 4 505 -15z m3105 -335 l0 -300 -385 0 -385 0 0 -1015 0 -1015 -345
0 -345 0 0 1015 0 1015 -385 0 -385 0 0 300 0 300 1115 0 1115 0 0 -300z
m1861 -1010 c258 -718 469 -1308 469 -1312 0 -5 -163 -7 -362 -6 l-362 3 -71
220 -71 220 -444 3 -445 2 -73 -225 -72 -225 -360 0 c-198 0 -360 3 -360 6 0
9 39 122 51 149 5 11 209 568 453 1237 244 669 447 1222 451 1228 4 7 121 9
367 8 l360 -3 469 -1305z m2084 1301 c167 -10 276 -36 395 -94 117 -57 250
-187 303 -297 72 -151 96 -350 62 -515 -42 -199 -179 -361 -377 -446 -32 -13
-58 -26 -58 -29 0 -3 31 -18 69 -33 89 -36 185 -122 229 -206 35 -65 70 -187
77 -266 6 -66 74 -650 81 -697 l6 -38 -345 0 -345 0 -6 48 c-3 26 -17 166 -31
312 -35 381 -46 427 -119 508 -75 83 -184 104 -501 100 l-200 -3 -3 -482 -2
-483 -345 0 -345 0 0 1315 0 1315 658 -1 c361 0 720 -4 797 -8z"/>
<path d="M12060 2874 c-168 -45 -295 -165 -377 -359 -56 -131 -85 -407 -64
-591 29 -245 89 -392 211 -514 120 -121 243 -167 420 -157 219 12 375 118 476
322 77 156 112 354 100 570 -21 401 -181 659 -452 729 -77 20 -239 20 -314 0z"/>
<path d="M19051 2397 c-35 -122 -94 -318 -132 -435 -38 -117 -69 -217 -69
-223 0 -5 108 -9 274 -9 l275 0 -55 163 c-30 89 -91 286 -135 437 -45 151 -84
278 -88 282 -4 4 -35 -92 -70 -215z"/>
<path d="M21280 2551 l0 -301 253 0 c289 0 367 9 454 49 207 97 203 427 -7
525 -42 20 -64 21 -372 24 l-328 3 0 -300z"/>
</g>
</svg>
